<?xml version="1.0" encoding="utf-8"?>
<!-- Generator: Adobe Illustrator 21.1.0, SVG Export Plug-In . SVG Version: 6.00 Build 0)  -->
<svg version="1.1" id="Layer_1" xmlns="http://www.w3.org/2000/svg" xmlns:xlink="http://www.w3.org/1999/xlink" x="0px" y="0px"
	 viewBox="0 0 262 144" style="enable-background:new 0 0 262 144;" xml:space="preserve">
<style type="text/css">
	.st0{fill:none;}
	.st1{fill:#FFFFFF;}
	.st2{fill:#FFFFFF;stroke:#FFFFFF;stroke-width:0.25;}
	.st3{fill:#1C1E1C;stroke:#FFFFFF;stroke-width:0.5;stroke-miterlimit:10;}
</style>
<title>horizontal logo</title>
<path class="st0" d="M106.6,98l-2.8,9c-0.8,1.9-1.7,3.7-2.8,5.4l0,0l5.6,6.2l-4,5.2l-7.3-3.7c-1.4,1.5-2.9,2.9-4.5,4.1l3.1,7.7
	l-5.5,3.5l-5.7-6.1l0,0c-1.8,0.9-3.7,1.7-5.6,2.3l0.3,8.3l-6.4,1.4l-3.3-7.6l0,0c-2,0.2-4,0.3-6.1,0.3l-2.5,7.9l-6.4-0.8l-0.4-8.3
	l0,0c-2-0.5-3.9-1.1-5.8-1.8l-5.1,6.6l-5.8-3l2.4-7.9c-1.7-1.1-3.3-2.4-4.8-3.7l-7,4.4l-4.4-4.8l5-6.6c-1.2-1.6-2.3-3.3-3.3-5.1
	l-8.1,1.8l-2.5-6l7-4.5c-0.3-1-0.5-1.9-0.8-2.9c-0.2-1-0.4-2-0.6-3l0,0l-8.3-1.1L10,88.4l8.1-1.9l0,0c0.1-2,0.4-4,0.8-6l-7.3-3.9
	l1.9-6.2l8.2,1c0.8-1.9,1.7-3.7,2.8-5.5l0,0l-5.6-6.1l4-5.2l7.4,3.8c1.4-1.5,2.9-2.9,4.5-4.1l-3.1-7.7l5.5-3.5l5.7,6.1
	c1.8-0.9,3.7-1.7,5.6-2.3L48,38.6l6.3-1.4l3.3,7.6l0,0c2-0.2,4-0.3,6.1-0.3l2.5-7.9l6.5,0.8l0.4,8.3c2,0.5,3.9,1.1,5.8,1.8L84,41
	l5.8,3l-2.4,7.9l0,0c1.7,1.1,3.3,2.3,4.8,3.7l0,0l7-4.4l4.4,4.8l-5,6.6c1.2,1.6,2.3,3.3,3.3,5.1l0,0L110,66l2.5,6l-7,4.5
	c0.3,1,0.5,1.9,0.8,2.9c0.2,1,0.4,2,0.6,3l8.2,1.1l0.3,6.5l-8.1,1.9C107.2,94,106.9,96,106.6,98L106.6,98z"/>
<path class="st1" d="M106.6,98c0.4-2,0.7-4,0.8-6l8.1-1.9l-0.3-6.5l-8.2-1.1c-0.2-1-0.3-2-0.6-3s-0.5-2-0.8-2.9l7-4.5l-2.6-6
	l-8.1,1.8l0,0c-1-1.8-2.1-3.5-3.3-5.1l5-6.6l-4.4-4.8l-7,4.4l0,0c-1.5-1.3-3.1-2.6-4.8-3.7l0,0l2.4-8L84,41l-5.1,6.6
	c-1.9-0.7-3.8-1.3-5.8-1.8l-0.4-8.3l-6.5-0.8l-2.5,7.9c-2,0-4.1,0.1-6.1,0.3l0,0l-3.3-7.6L48,38.6l0.3,8.3c-1.9,0.6-3.8,1.4-5.6,2.3
	L37,43.2l-5.5,3.5l3.1,7.7c-1.6,1.3-3.1,2.6-4.5,4.1l-7.4-3.8l-4,5.2l5.6,6.1l0,0c-1.1,1.7-2,3.5-2.8,5.4l-8.2-1l-1.9,6.2l7.3,3.9
	c-0.4,2-0.7,4-0.8,6l0,0L10,88.4l0.3,6.5l8.2,1.1l0,0c0.1,1,0.3,2,0.6,3s0.5,2,0.8,2.9l-7,4.5l2.5,6l8.1-1.8c1,1.8,2.1,3.5,3.3,5.1
	l-5,6.6l4.4,4.8l7-4.4c1.5,1.3,3.1,2.6,4.8,3.7l-2.4,7.9l5.8,3l5.1-6.6c1.9,0.7,3.8,1.3,5.8,1.8l0,0l0.4,8.3l6.5,0.8l2.5-7.9
	c2,0,4.1-0.1,6.1-0.3l0,0l3.3,7.6l6.3-1.4l-0.3-8.3c1.9-0.6,3.8-1.4,5.6-2.3l0,0l5.7,6.1l5.5-3.5l-3.1-7.7c1.6-1.3,3.1-2.6,4.5-4.1
	l5.8-7.6l0,0c1.1-1.7,2-3.5,2.8-5.4L106.6,98z M94,97.4c-0.3,1-0.6,2-0.9,3c-3.6,9.8-11.7,17.2-21.7,20c-0.5,0.1-1,0.3-1.5,0.4
	c-0.5,0.1-1,0.2-1.6,0.3c-10.3,1.8-20.8-1.5-28.2-8.8c-0.8-0.7-1.5-1.5-2.1-2.3c-6.7-8-9.1-18.7-6.5-28.8c0.3-1,0.6-2,1-3
	c3.6-9.8,11.7-17.2,21.7-20c0.5-0.1,1-0.3,1.5-0.4s1-0.2,1.5-0.3c10.3-1.8,20.8,1.5,28.2,8.8c0.8,0.7,1.5,1.5,2.1,2.3
	c1.3,1.6,7.5,0.2,9.2,1.9c2.3,2.4,0,8,0.6,11.1C98.5,86.7,95.2,92.6,94,97.4z"/>
<path class="st2" d="M84.3,58.4l123.7-0.2c0,0,12-0.5,18.5,10.3c5.7,9.4,24.4,44.6,25,46.3s1.5,3-3,2.8c-1.3-0.1-49.6,0-49.6,0
	c-0.8-0.1-1.4-0.8-1.4-1.6c0-0.1,0-0.3,0.1-0.4c0.4-1.7,4-11.3,4.4-12c0.9-1.7,1.4-2.9,3.7-2.9c1.5,0,9.7,0.1,11.5,0.1
	c1,0,1.8-0.8,1.8-1.8c0-0.3-0.1-0.7-0.3-1c-1.8-3.5-10-18.2-11.4-20.7c-0.4-0.8-1.8-5.1-9.9-5.2c-8.5,0-65.2,0-65.2,0
	c-8-0.7-9.3,5.2-11.3,10.2c-0.2,0.6-13.7,32.6-14.2,33.6c-0.4,1.3-1.7,2-3,1.7c-1.3-0.1-20,0-20.7,0s-0.9-1.1,0-2.8
	S96.7,81.8,97.7,79s-0.4-7.8-3.9-7.8H78c0,0-2.4,0.7-1.1-2.8c0.3-0.9,1.6-4.8,2.4-6.3C80.4,59.9,80,58.4,84.3,58.4L84.3,58.4z"/>
<path class="st2" d="M159.8,79.2c0,0,17.6,8.3,19.1,9c2.5,1.1,6.6,2.9,2.8,12.4s-4.6,11.4-5.6,13.2s-1.5,3.4-7.3,3.8
	c-4.6,0.3-52,0.3-52.9,0.3s-4.6,0-3.3-2.9c0.8-1.7,2.6-9.1,3.6-11.3s1.5-1.8,3.4-1.8h34.6c7,0,7.2-2.8,4.9-4.1
	c-3.8-2.2-21.2-10-23-11.1s-3.9-1.3-3.9-4.1c0-1.5,0.3-5.6,0.4-7.3c0-0.3,0.3-0.6,0.6-0.8h24.7c0,0,0.8,0.1,0.8,0.8
	S158.2,78.5,159.8,79.2L159.8,79.2z"/>
<path class="st2" d="M184.4,74.5h14.2c1.5,0,8,6.1,6.1,11.5c-2.2,6-11.4,28.7-11.7,29.4s-0.6,2.3-2.1,2.3c-1,0-10.3,0-11-0.1
	c-1.8-0.1-0.3-1.4,0.3-2.6c0.8-1.4,5.9-13.7,6.7-16.2c1-3.2,1.1-7.6-0.1-9.4c-1.1-1.8-2.7-3.2-4.5-4.2c-0.3-0.3-1-0.4-0.8-1.5
	c0.4-2,1.4-6.2,1.9-8.1C183.8,74.1,184.4,74.6,184.4,74.5L184.4,74.5z"/>
<path class="st3" d="M118.1,47.2c-1-1.7-3.2-1.3-5.4-1.1c-3.2,0.1-6.4,0.1-9.5-0.1c-0.4,0-0.8,0-1.2-0.1c-0.1,0-1.8-0.3-2.7-0.5
	c0.3-1.1,0.5-2.2,0.7-3.4c0-0.2,0-0.4,0-0.6c-0.1-1.1-0.9-1.8-1.3-2.6c-0.2-0.3-0.7-1-0.8-1.2c-0.8-1.3-1.4-2.6-1.9-4
	c-0.3-1.4-1.3-4.7-1.6-6.5c0-1-0.3-2.3,0-3.3c1,0.7,2.1,1.2,3.3,1.4c1.1,0,2.2,0.1,3.2,0.4c0.9,0.4,1.4,1.9,2.2,2.3
	c0.5,0.3,1.1,0.1,1.8,0.2c0.9,0.2,1.8,1,2.5,0.7c1.2-0.5,1.6-1.8,2.1-3c0.4-1,1-1.4,0.8-2.4c-0.7-1.2-1.9-1.7-3-2.4
	c-0.8-0.6-1.2-1-2.2-1.8c-0.9-1-1.8-2.3-2.7-3.3c-1.5-1.8-2.5-3.9-4-5.5c-0.2-0.2-0.5-0.5-0.8-0.6c1.5-0.6,3.1-1.2,3.5-2.8
	c-1.1,0.8-2.4,1.3-3.7,1.2c0.6-0.5,0.9-1.3,0.7-2.1C97.9,5.5,97.5,5,97,4.6c-0.6-0.6-1.4-1-2.2-1.1c0.6,0.9,1.8,2.3,1,3.5
	c-0.5,0.5-1.2,0.9-1.9,1c0.7-0.7,1.1-1.6,1.3-2.5c0-1.1-1.3-2.2-1.8-2.7c-0.1-0.1-0.4-0.5-0.7-0.6c0,0.6,0.6,0.8,0.7,1.4
	c0.3,1.5-0.7,2.4-1.8,3c-0.5-0.8-1.1-1.5-1.7-2.3c-0.5-0.8-1.5-1.3-2.4-1.2c-0.3,0.8,0,1.2,0,1.9c0,0.1-0.1,1.6,0,1.7
	c-6.6,0.2-10.4,4.6-15.8,6c-0.7,0.2-1.3,0.4-2,0.5c-1.1,0.2-2.6,0-3.8,0.5c2.8,0.4,5.2,2.1,8.4,1.6c-1.4,0.9-3.9,1-5.5,1.5
	c-1.3,0.4-2.5,0.9-3.7,1.7c-1.5,1.1-2.9,2.3-4.1,3.8c1.4-0.9,2.8-2,4.7-2.3c1.6-0.2,3.2,0.5,4.9,0.5c-1.4,1.5-3.1,2.7-4.9,3.5
	c-2.1,0.8-3.6,0.5-4.9,0.9c2.4,2,7.6,1.7,10.7,0.5c-0.3,0.4-0.5,0.8-0.8,1.1c-0.7,1.1-1.7,2.2-2.5,3.3c-0.9,1.5-2,2.9-3.2,4.1
	c-1.8,1.7-4.8,2.8-6,4.5c1.6-1.9,5.1-1.7,8.1-2.4c1.4-0.4,2.7-0.8,3.9-1.4c-1.1,2.3-2.3,5-4.9,5.7c-0.5,0.1-1.3,0.1-1.6,0.5
	c2.4,0.2,4.9-0.2,7.1-1.3c-0.2,1.4-0.7,2.8-1.4,4c-0.9,1.7-2.5,2.8-4,3.9c-1.7,1.1-3.5,2.1-5.4,2.8c-2.7,1.2-5.9,2-8.2,3.7
	c-1.4,1.1-2.7,2.4-3.9,3.8c-1.2,1.4-2.3,3.7-3.5,4.9c-0.8,0.5-1,0.6-1.5,1c-1.5,0.9-3,1.6-4.6,2.2c-4.4,1.9-8.6,3.9-10.1,8.6
	c-0.3,1.4-0.5,2.7-0.6,4.1c0,1.3,0.3,2.7,0.8,3.9c0.4,1.2,1.1,2.2,1.4,3.5c0.8,2.9,0.7,6-0.1,8.9c-0.3,1.3-0.8,2.4-1.5,3.5
	c-0.5,0.6-1.4,1-1.9,1.7c1.5,0.1,3-0.6,4-1.8c-0.1,1.5-0.2,3-0.5,4.5c-0.2,0.8-0.7,1.5-0.4,2.4c0.9-1.8,2.1-3.3,2.8-5.3
	c0.4,2,0.5,4,0.3,6c-0.5,1.9-1.2,3.7-2.1,5.5c1.7-1.8,3.3-3.7,4.5-5.9c-0.3,4.4-1.3,8.3-3.9,11.5c0.6,0,1.1-0.7,1.5-1.1
	c3.1-2.8,5.8-6,6.7-10.8c0-0.2,0-0.5,0.1-0.7c0.3,1.4,0.5,2.8,0.5,4.2c2.1-4.4,2.8-9.2,2.2-14c1.1,1.4,1.5,3.3,2.3,5
	c0.1-3.9-0.3-7.9-1.4-11.6c1.3,0.8,1.6,3.1,2.1,4.3c0.2-4.4-1.3-8-2.7-11.3c-0.3-0.6-0.7-1.2-1.1-2s-0.7-1.6-1-2.4
	c-0.7-1.3-1.1-2.7-1.2-4.2c0-1.7,1-3.5,2.7-3.7c1.2-0.1,1.3,0.8,1.5,1.7c0.3,1,0.6,2,1.1,2.9c1.8,3.9,5.4,7.1,6.7,11.5
	c0.3,0.9,0.6,1.9,0.7,2.9c0,1.4-0.3,2.8-0.7,4.1c-0.3,1.3-1.1,2.5-0.5,3.8c0.4,0.9,0.9,1.7,1.4,2.4c0.5,0.8,1,1.7,1.5,2.4
	c0.9,1.5,1.6,3.2,2.2,4.9c0.3,0.8,0.5,1.6,0.7,2.5c0.6,2,0.7,4.1,0.5,6.1c-0.7,1.8,1.4,2.2,1.9,3.4c0.6,1.4-0.4,2.9-0.2,4.4
	c0.1,0.7,2,0.7,2.8,0.8s2,0.3,2.9,0.2c0.8,0,1.6,0,2.4-0.2c1-0.3,0.3-2.7,0.2-3.5c-0.6-1.9-1.4-3.8-2.4-5.6
	c-0.7-1.5-0.9-3.3-1.6-4.9c-0.3-0.8-0.7-1.8-1-2.6c-0.8-2.3-1.5-4.7-2.1-7.1c0.4-1.2,0.8-2.2,1.2-3.5c0.2-0.7,0.5-1.4,0.8-2.1
	c0.8-1.6,1.6-3,2.4-4.5c0.6-1,0.9-2.2,1.4-3.4c0.9-1.7,1.5-3.4,2-5.2c0.5-2,0.4-4-0.2-6c-0.4-1.3-1.1-2.8-0.2-4.1
	c8.3-1.9,14.3-5.6,20-9.9c0.5-0.6,1.1-1.1,1.6-1.6c0.3-0.3,0.8-0.7,1.1-1s1.2-1.8,1.7-2c0.4,0,0.9,0,1.3,0c0.5-0.1,1-0.2,1.4-0.3
	c1.2-0.4,1.7-1.2,2.9-1.4c4.5-0.8,8.6-1.3,13.1-2.1c0.1,0.6,0.9,0.9,1,1.5c0.1,1-0.5,2.3-0.8,3.4c-0.5,2.4-1.2,5.7-2.2,7.7
	c-0.4,0.4-1,0.9-0.9,1.6s1.1,0.5,1.1,0.9c0.1,0.8-1.7,0.6-2.4,0.7c-0.8,0.6-0.9,2.5-1,3.6c-0.2,1.9,0,3.8,0.5,5.6
	c1.2,0.3,2.4-0.9,3.1-1.7c1.1-1.2,2.1-2.5,3.2-3.6c0.4-0.4,1-0.6,1.4-0.9c1.8-1.7,0.4-5.4,1.5-7.8c0.5-2.9,1.3-5.8,2.3-8.6
	c0.7-1.6,1.4-3.4,1.2-5C118.8,48.6,118.6,47.9,118.1,47.2z"/>
</svg>